#!OML:ASF E:\emotionWalksFemale\Project 1\Capture day 1\Session 1\Female1.ASF
:FULLY-SPECIFIED
:DEGREES
368
root 9.75861 15.3343 -27.8606 0.936116 5.07249 -2.98919
lowerback 7.98185 2.87222 2.93777
upperback -3.95233 4.15214 -0.560944
thorax -8.41265 1.84252 -2.86122
lowerneck -6.76519 -6.17853 -10.484
upperneck 12.6181 -8.2428 8.18327
head 5.69097 -4.00569 3.67392
rclavicle -4.51738e-014 -2.38542e-015
rhumerus -29.2148 17.5772 -92.407
rradius 37.0498
rwrist 12.9045
rhand -1.74883 -52.7446
rfingers 7.12502
rthumb 23.9143 -81.2755
lclavicle -4.51738e-014 -2.38542e-015
lhumerus -45.2735 8.10554 76.4069
lradius 40.176
lwrist -6.77476
lhand -6.76718 -32.928
lfingers 7.12502
lthumb 19.0947 -3.84536
rfemur 18.0419 14.7478 37.1062
rtibia -6.36111e-015
rfoot -11.5514 -31.5404
rtoes 12.2617
lfemur -33.8793 -25.3346 -10.6949
ltibia 27.6138
lfoot -20.6953 23.0752
ltoes -14.1713
369
root 9.77489 15.3333 -27.745 0.875187 4.7032 -2.99864
lowerback 8.07568 2.9025 2.95129
upperback -3.96822 4.20041 -0.527035
thorax -8.48327 1.864 -2.84669
lowerneck -6.90606 -6.06748 -10.3932
upperneck 12.7594 -8.07333 8.02456
head 5.73239 -3.92571 3.61985
rclavicle 1.963e-015 9.14409e-015
rhumerus -29.086 17.8173 -92.649
rradius 37.2295
rwrist 12.7803
rhand -2.52831 -52.2433
rfingers 7.12502
rthumb 23.1666 -80.8703
lclavicle 1.963e-015 9.14409e-015
lhumerus -45.4969 8.47666 75.9768
lradius 39.5657
lwrist -7.30595
lhand -7.14298 -33.0362
lfingers 7.12502
lthumb 18.7333 -3.91828
rfemur 18.574 14.4325 37.1014
rtibia 9.54166e-015
rfoot -12.1567 -31.2265
rtoes 13.2802
lfemur -34.2248 -27.6693 -9.48188
ltibia 26.8601
lfoot -22.834 24.6247
ltoes -10.5888
370
root 9.7918 15.327 -27.6293 0.872958 4.1556 -3.06418
lowerback 8.12793 3.02356 3.02759
upperback -4.04234 4.37585 -0.520208
thorax -8.5781 1.94183 -2.91389
lowerneck -6.85393 -5.9741 -10.2548
upperneck 12.8293 -7.95567 7.9151
head 5.7237 -3.87025 3.57466
rclavicle -5.15598e-014 3.57812e-015
rhumerus -29.1118 18.1261 -93.0375
rradius 37.3594
rwrist 11.9798
rhand -3.21004 -51.6361
rfingers 7.12502
rthumb 22.5124 -80.3437
lclavicle -5.15598e-014 3.57812e-015
lhumerus -45.6924 8.77822 75.4601
lradius 38.8365
lwrist -7.68442
lhand -7.15874 -33.0866
lfingers 7.12502
lthumb 18.7181 -3.96723
rfemur 19.0342 14.3139 37.1179
rtibia 1.90833e-014
rfoot -12.5078 -30.8754
rtoes 14.1833
lfemur -34.5743 -29.6461 -8.27286
ltibia 26.2628
lfoot -24.8225 26.2257
ltoes -6.8071
371
root 9.81452 15.3138 -27.5076 1.04826 4.18594 -3.06462
lowerback 8.04474 2.97497 3.15208
upperback -4.24863 4.32404 -0.567657
thorax -8.74516 1.90105 -3.02937
lowerneck -6.69508 -5.9053 -10.0192
upperneck 12.8707 -7.87989 7.72328
head 5.68486 -3.83827 3.48669
rclavicle 1.03617e-014 2.38542e-015
rhumerus -29.382 18.0746 -93.3523
rradius 37.5966
rwrist 11.5519
rhand -3.23162 -51.6075
rfingers 7.12502
rthumb 22.4917 -80.3176
lclavicle 1.03617e-014 2.38542e-015
lhumerus -46.0738 9.00712 74.9876
lradius 38.2488
lwrist -8.25544
lhand -7.49767 -32.9329
lfingers 7.12502
lthumb 18.3921 -3.78234
rfemur 19.2641 13.6942 36.9815
rtibia -7.31528e-014
rfoot -12.2002 -30.4363
rtoes 13.7121
lfemur -35.1688 -31.2472 -7.35269
ltibia 25.765
lfoot -26.2623 27.1841
ltoes -2.40905
372
root 9.82777 15.3077 -27.3813 0.958633 3.2695 -2.98695
lowerback 7.75943 3.20716 2.92022
upperback -4.04585 4.59623 -0.533206
thorax -8.35863 2.06212 -2.87302
lowerneck -6.9345 -5.80337 -9.87372
upperneck 12.765 -7.71206 7.59445
head 5.66656 -3.7524 3.43098
rclavicle 3.18552e-014 2.78299e-015
rhumerus -29.0467 18.07 -93.4257
rradius 37.6498
rwrist 11.7376
rhand -2.99908 -51.5953
rfingers 7.12502
rthumb 22.7148 -80.2783
lclavicle 3.18552e-014 2.78299e-015
lhumerus -46.0586 9.6054 74.5369
lradius 37.7208
lwrist -8.91838
lhand -7.66648 -32.8349
lfingers 7.12502
lthumb 18.2297 -3.66909
rfemur 19.9238 13.9001 36.8863
rtibia -6.04305e-014
rfoot -10.501 -30.0911
rtoes 9.24774
lfemur -34.9411 -32.2739 -6.83776
ltibia 25.416
lfoot -28.1181 27.8535
ltoes 4.64789
373
root 9.85113 15.3021 -27.2524 0.901244 2.77004 -2.90456
lowerback 7.85731 3.26666 2.72852
upperback -4.10278 4.66596 -0.438735
thorax -8.49572 2.10529 -2.68654
lowerneck -7.31043 -5.68555 -9.83517
upperneck 13.1194 -7.50441 7.35399
head 5.81241 -3.65708 3.3561
rclavicle -6.51765e-014 -8.74653e-015
rhumerus -29.1724 18.341 -93.6362
rradius 37.6413
rwrist 12.0603
rhand -3.04099 -51.5412
rfingers 7.12502
rthumb 22.6746 -80.2291
lclavicle -6.51765e-014 -8.74653e-015
lhumerus -46.5664 10.1918 74.0871
lradius 37.2878
lwrist -9.52904
lhand -7.53632 -33.0046
lfingers 7.12502
lthumb 18.3549 -3.85054
rfemur 20.4876 13.7305 36.6987
rtibia 1.20861e-013
rfoot -9.29504 -29.7107
rtoes 5.90815
lfemur -34.585 -32.4708 -6.92921
ltibia 25.2133
lfoot -28.632 27.9584
ltoes 6.85414
374
root 9.87823 15.3018 -27.1262 0.966777 2.53772 -3.03863
lowerback 7.79314 3.20887 3.15055
upperback -4.19012 4.62863 -0.545893
thorax -8.51466 2.05829 -3.02799
lowerneck -7.53979 -5.56412 -9.56418
upperneck 13.4056 -7.3586 7.2917
head 5.91515 -3.57242 3.29954
rclavicle 2.70596e-014 -1.19271e-015
rhumerus -29.3179 18.563 -94.2093
rradius 37.6857
rwrist 12.302
rhand -3.49245 -51.523
rfingers 7.12502
rthumb 22.2413 -80.2633
lclavicle 2.70596e-014 -1.19271e-015
lhumerus -46.9161 10.5572 73.3197
lradius 36.7565
lwrist -10.1199
lhand -7.08921 -33.0611
lfingers 7.12502
lthumb 18.785 -3.94816
rfemur 20.8195 13.3553 36.6514
rtibia 0
rfoot -8.71408 -29.2123
rtoes 4.78001
lfemur -34.2757 -31.8625 -7.19317
ltibia 25.1879
lfoot -27.1463 27.8917
ltoes 2.83921
